<svg xmlns="http://www.w3.org/2000/svg" width="512" height="512" viewBox="0 0 512 512" role="img">
  <title>apronterm splash</title>
  <desc>Linien-Jet ueber dem Schriftzug apronTERM auf dunklem Grund.</desc>
  <rect width="512" height="512" fill="#16212E"/>
  <g transform="translate(87.3,95) scale(2.65)" fill="none" stroke-linejoin="round" stroke-linecap="round" stroke-width="5.5">
    <path stroke="#1FC2AE" transform="translate(-0.070609,-0.14121801)" d="M 21.601059,22 H 10 L 9.8817299,55.528685 74,55.505737 91.929391,45.622242 74.070609,36.727273 32.633716,36.540159 Z"/>
    <path stroke="#F4B23E" d="M 73.857017,55.41218 91.929391,45.481024 73.786408,36.538394"/>
    <path stroke="#F4B23E" d="m 97.607741,64.925184 19.908209,0.02471"/>
  </g>
  <path d="M241 -12Q171 -12 123.5 26.5Q76 65 76 129Q76 212 156.5 254.5Q237 297 421 311Q419 356 391.5 388.0Q364 420 299 420Q254 420 211.5 403.0Q169 386 133 365L96 432Q137 457 194.5 479.0Q252 501 316 501Q417 501 468.5 446.0Q520 391 520 294V0H439L431 63H428Q389 33 340.0 10.5Q291 -12 241 -12ZM269 67Q308 67 346.0 84.0Q384 101 421 132V248Q325 241 271.0 225.5Q217 210 194.5 188.0Q172 166 172 136Q172 99 200.5 83.0Q229 67 269 67Z" transform="translate(104.800,342.000) scale(0.056000,-0.056000)" fill="#EAF2F1"/><path d="M88 -200V489H169L177 429H180Q213 461 256.5 481.0Q300 501 343 501Q440 501 492.0 433.0Q544 365 544 252Q544 169 513.0 109.5Q482 50 432.0 19.0Q382 -12 324 -12Q290 -12 253.0 4.0Q216 20 185 48H182L187 -40V-200ZM305 70Q364 70 403.0 117.0Q442 164 442 251Q442 328 412.0 373.0Q382 418 316 418Q286 418 253.0 402.5Q220 387 187 352V121Q218 93 250.0 81.5Q282 70 305 70Z" transform="translate(138.400,342.000) scale(0.056000,-0.056000)" fill="#EAF2F1"/><path d="M138 0V489H220L228 375H231Q269 434 324.0 467.5Q379 501 444 501Q497 501 540 481L518 396Q493 404 475.0 408.0Q457 412 429 412Q377 412 327.5 382.0Q278 352 237 278V0Z" transform="translate(172.000,342.000) scale(0.056000,-0.056000)" fill="#EAF2F1"/><path d="M300 -12Q236 -12 180.5 18.0Q125 48 90.5 105.5Q56 163 56 244Q56 326 90.5 383.0Q125 440 180.5 470.5Q236 501 300 501Q364 501 419.5 470.5Q475 440 509.5 383.0Q544 326 544 244Q544 163 509.5 105.5Q475 48 419.5 18.0Q364 -12 300 -12ZM300 69Q365 69 403.5 117.0Q442 165 442 244Q442 323 403.5 371.0Q365 419 300 419Q235 419 196.5 371.0Q158 323 158 244Q158 165 196.5 117.0Q235 69 300 69Z" transform="translate(205.600,342.000) scale(0.056000,-0.056000)" fill="#EAF2F1"/><path d="M88 0V489H169L177 410H181Q218 448 261.0 474.5Q304 501 361 501Q447 501 487.0 449.5Q527 398 527 303V0H428V290Q428 354 405.0 384.5Q382 415 326 415Q287 415 256.0 395.5Q225 376 187 337V0Z" transform="translate(239.200,342.000) scale(0.056000,-0.056000)" fill="#EAF2F1"/><path d="M250 0V571H39V655H561V571H350V0Z" transform="translate(272.800,342.000) scale(0.056000,-0.056000)" fill="#1FC2AE"/><path d="M109 0V655H521V571H209V384H473V300H209V84H531V0Z" transform="translate(306.400,342.000) scale(0.056000,-0.056000)" fill="#1FC2AE"/><path d="M92 0V655H303Q371 655 424.0 637.0Q477 619 507.5 578.0Q538 537 538 466Q538 390 500.0 344.0Q462 298 400 279L561 0H448L299 266H192V0ZM192 347H291Q363 347 401.0 376.5Q439 406 439 466Q439 526 401.0 550.5Q363 575 291 575H192Z" transform="translate(340.000,342.000) scale(0.056000,-0.056000)" fill="#1FC2AE"/><path d="M68 0V655H184L269 388L298 286H302L331 388L416 655H532V0H440V295Q440 329 443.0 376.0Q446 423 450.0 469.5Q454 516 456 546H453L412 405L329 174H267L185 405L145 546H142Q146 516 149.5 469.5Q153 423 155.5 376.0Q158 329 158 295V0Z" transform="translate(373.600,342.000) scale(0.056000,-0.056000)" fill="#1FC2AE"/>
  <path d="M300 -12Q236 -12 180.5 18.0Q125 48 90.5 105.5Q56 163 56 244Q56 326 90.5 383.0Q125 440 180.5 470.5Q236 501 300 501Q364 501 419.5 470.5Q475 440 509.5 383.0Q544 326 544 244Q544 163 509.5 105.5Q475 48 419.5 18.0Q364 -12 300 -12ZM300 69Q365 69 403.5 117.0Q442 165 442 244Q442 323 403.5 371.0Q365 419 300 419Q235 419 196.5 371.0Q158 323 158 244Q158 165 196.5 117.0Q235 69 300 69Z" transform="translate(108.100,378.000) scale(0.017000,-0.017000)" fill="#7C8B9A"/><path d="M138 0V489H220L228 375H231Q269 434 324.0 467.5Q379 501 444 501Q497 501 540 481L518 396Q493 404 475.0 408.0Q457 412 429 412Q377 412 327.5 382.0Q278 352 237 278V0Z" transform="translate(118.300,378.000) scale(0.017000,-0.017000)" fill="#7C8B9A"/><path d="M291 -221Q187 -221 127.0 -186.5Q67 -152 67 -88Q67 -26 146 18V22Q127 33 111.5 52.5Q96 72 96 103Q96 127 111.5 151.5Q127 176 154 195V199Q129 218 111.0 250.0Q93 282 93 325Q93 380 120.0 419.0Q147 458 192.0 479.5Q237 501 290 501Q331 501 364 489H565V411H446Q460 395 471.0 371.5Q482 348 482 322Q482 269 456.5 231.5Q431 194 387.5 174.5Q344 155 290 155Q272 155 251.5 159.0Q231 163 211 171Q177 149 177 120Q177 69 274 69H378Q473 69 520.5 41.5Q568 14 568 -48Q568 -95 534.0 -134.5Q500 -174 438.0 -197.5Q376 -221 291 -221ZM290 219Q332 219 362.0 247.5Q392 276 392 325Q392 373 362.0 402.0Q332 431 290 431Q248 431 217.5 402.0Q187 373 187 325Q187 276 217.5 247.5Q248 219 290 219ZM301 -152Q379 -152 425.0 -125.5Q471 -99 471 -65Q471 -33 445.0 -22.0Q419 -11 367 -11H280Q258 -11 239.5 -9.0Q221 -7 206 -3Q175 -20 162.5 -38.5Q150 -57 150 -76Q150 -111 189.0 -131.5Q228 -152 301 -152Z" transform="translate(128.500,378.000) scale(0.017000,-0.017000)" fill="#7C8B9A"/><path d="M241 -12Q171 -12 123.5 26.5Q76 65 76 129Q76 212 156.5 254.5Q237 297 421 311Q419 356 391.5 388.0Q364 420 299 420Q254 420 211.5 403.0Q169 386 133 365L96 432Q137 457 194.5 479.0Q252 501 316 501Q417 501 468.5 446.0Q520 391 520 294V0H439L431 63H428Q389 33 340.0 10.5Q291 -12 241 -12ZM269 67Q308 67 346.0 84.0Q384 101 421 132V248Q325 241 271.0 225.5Q217 210 194.5 188.0Q172 166 172 136Q172 99 200.5 83.0Q229 67 269 67Z" transform="translate(138.700,378.000) scale(0.017000,-0.017000)" fill="#7C8B9A"/><path d="M88 0V489H169L177 410H181Q218 448 261.0 474.5Q304 501 361 501Q447 501 487.0 449.5Q527 398 527 303V0H428V290Q428 354 405.0 384.5Q382 415 326 415Q287 415 256.0 395.5Q225 376 187 337V0Z" transform="translate(148.900,378.000) scale(0.017000,-0.017000)" fill="#7C8B9A"/><path d="M306 0V409H87V489H405V0ZM347 584Q316 584 294.5 603.5Q273 623 273 655Q273 687 294.5 706.5Q316 726 347 726Q379 726 400.0 706.5Q421 687 421 655Q421 623 400.0 603.5Q379 584 347 584Z" transform="translate(159.100,378.000) scale(0.017000,-0.017000)" fill="#7C8B9A"/><path d="M71 0V53L384 409H106V489H525V436L210 80H534V0Z" transform="translate(169.300,378.000) scale(0.017000,-0.017000)" fill="#7C8B9A"/><path d="M318 423Q263 423 220.0 388.5Q177 354 166 289H451Q446 356 410.5 389.5Q375 423 318 423ZM330 -12Q256 -12 196.0 18.5Q136 49 100.5 106.5Q65 164 65 245Q65 325 100.5 382.0Q136 439 193.0 470.0Q250 501 315 501Q387 501 437.0 471.5Q487 442 513.5 390.0Q540 338 540 270Q540 254 539.0 240.0Q538 226 536 216H164Q172 140 221.5 103.0Q271 66 343 66Q384 66 418.0 77.5Q452 89 485 109L520 46Q483 21 434.5 4.5Q386 -12 330 -12Z" transform="translate(179.500,378.000) scale(0.017000,-0.017000)" fill="#7C8B9A"/><path d="" transform="translate(189.700,378.000) scale(0.017000,-0.017000)" fill="#7C8B9A"/><path d="M392 -12Q320 -12 277.5 14.0Q235 40 216.5 86.0Q198 132 198 193V409H64V484L202 489L215 644H297V489H528V409H297V193Q297 130 322.5 99.0Q348 68 415 68Q447 68 474.5 73.5Q502 79 527 89L547 16Q514 5 476.5 -3.5Q439 -12 392 -12Z" transform="translate(199.900,378.000) scale(0.017000,-0.017000)" fill="#7C8B9A"/><path d="M318 423Q263 423 220.0 388.5Q177 354 166 289H451Q446 356 410.5 389.5Q375 423 318 423ZM330 -12Q256 -12 196.0 18.5Q136 49 100.5 106.5Q65 164 65 245Q65 325 100.5 382.0Q136 439 193.0 470.0Q250 501 315 501Q387 501 437.0 471.5Q487 442 513.5 390.0Q540 338 540 270Q540 254 539.0 240.0Q538 226 536 216H164Q172 140 221.5 103.0Q271 66 343 66Q384 66 418.0 77.5Q452 89 485 109L520 46Q483 21 434.5 4.5Q386 -12 330 -12Z" transform="translate(210.100,378.000) scale(0.017000,-0.017000)" fill="#7C8B9A"/><path d="M138 0V489H220L228 375H231Q269 434 324.0 467.5Q379 501 444 501Q497 501 540 481L518 396Q493 404 475.0 408.0Q457 412 429 412Q377 412 327.5 382.0Q278 352 237 278V0Z" transform="translate(220.300,378.000) scale(0.017000,-0.017000)" fill="#7C8B9A"/><path d="M52 0V489H130L138 425H140Q157 458 182.5 479.5Q208 501 250 501Q321 501 340 417Q360 455 385.5 478.0Q411 501 453 501Q505 501 533.5 461.5Q562 422 562 348V0H465V341Q465 416 420 416Q398 416 382.5 399.0Q367 382 350 348V0H264V341Q264 416 220 416Q198 416 181.5 399.0Q165 382 149 348V0Z" transform="translate(230.500,378.000) scale(0.017000,-0.017000)" fill="#7C8B9A"/><path d="M306 0V409H87V489H405V0ZM347 584Q316 584 294.5 603.5Q273 623 273 655Q273 687 294.5 706.5Q316 726 347 726Q379 726 400.0 706.5Q421 687 421 655Q421 623 400.0 603.5Q379 584 347 584Z" transform="translate(240.700,378.000) scale(0.017000,-0.017000)" fill="#7C8B9A"/><path d="M88 0V489H169L177 410H181Q218 448 261.0 474.5Q304 501 361 501Q447 501 487.0 449.5Q527 398 527 303V0H428V290Q428 354 405.0 384.5Q382 415 326 415Q287 415 256.0 395.5Q225 376 187 337V0Z" transform="translate(250.900,378.000) scale(0.017000,-0.017000)" fill="#7C8B9A"/><path d="M241 -12Q171 -12 123.5 26.5Q76 65 76 129Q76 212 156.5 254.5Q237 297 421 311Q419 356 391.5 388.0Q364 420 299 420Q254 420 211.5 403.0Q169 386 133 365L96 432Q137 457 194.5 479.0Q252 501 316 501Q417 501 468.5 446.0Q520 391 520 294V0H439L431 63H428Q389 33 340.0 10.5Q291 -12 241 -12ZM269 67Q308 67 346.0 84.0Q384 101 421 132V248Q325 241 271.0 225.5Q217 210 194.5 188.0Q172 166 172 136Q172 99 200.5 83.0Q229 67 269 67Z" transform="translate(261.100,378.000) scale(0.017000,-0.017000)" fill="#7C8B9A"/><path d="M404 -12Q322 -12 279.0 35.5Q236 83 236 171V630H68V709H335V165Q335 114 361.0 91.5Q387 69 427 69Q466 69 515 90L539 16Q504 3 474.5 -4.5Q445 -12 404 -12Z" transform="translate(271.300,378.000) scale(0.017000,-0.017000)" fill="#7C8B9A"/><path d="M306 -12Q236 -12 173.5 10.5Q111 33 67 64L111 128Q154 98 204.5 81.0Q255 64 319 64Q375 64 402.5 83.5Q430 103 430 131Q430 149 420.0 162.5Q410 176 379.5 188.0Q349 200 287 213Q190 233 143.5 268.0Q97 303 97 358Q97 420 150.5 460.5Q204 501 306 501Q364 501 416.5 481.5Q469 462 506 437L460 375Q425 398 383.5 411.5Q342 425 297 425Q242 425 219.0 407.0Q196 389 196 363Q196 335 227.5 319.5Q259 304 330 289Q410 272 453.5 251.0Q497 230 513.5 202.5Q530 175 530 137Q530 96 504.0 62.0Q478 28 428.0 8.0Q378 -12 306 -12Z" transform="translate(281.500,378.000) scale(0.017000,-0.017000)" fill="#7C8B9A"/><path d="" transform="translate(291.700,378.000) scale(0.017000,-0.017000)" fill="#7C8B9A"/><path d="M325 -12Q290 -12 250.5 5.5Q211 23 178 54H175L166 0H88V709H187V521L183 431H186Q218 463 259.5 482.0Q301 501 342 501Q439 501 491.5 433.0Q544 365 544 252Q544 169 513.0 109.5Q482 50 432.0 19.0Q382 -12 325 -12ZM306 70Q364 70 403.0 117.0Q442 164 442 251Q442 328 412.0 373.0Q382 418 316 418Q286 418 253.0 402.5Q220 387 187 352V121Q218 93 250.0 81.5Q282 70 306 70Z" transform="translate(301.900,378.000) scale(0.017000,-0.017000)" fill="#7C8B9A"/><path d="M134 -205Q97 -205 67 -195L87 -118Q96 -121 107.0 -123.0Q118 -125 129 -125Q178 -125 208.5 -98.0Q239 -71 255 -31L268 3L45 489H144L254 234Q268 201 282.0 164.0Q296 127 311 91H315Q327 126 340.0 163.0Q353 200 365 234L462 489H556L347 -31Q318 -109 269.0 -157.0Q220 -205 134 -205Z" transform="translate(312.100,378.000) scale(0.017000,-0.017000)" fill="#7C8B9A"/><path d="" transform="translate(322.300,378.000) scale(0.017000,-0.017000)" fill="#7C8B9A"/><path d="M88 -200V489H169L177 429H180Q213 461 256.5 481.0Q300 501 343 501Q440 501 492.0 433.0Q544 365 544 252Q544 169 513.0 109.5Q482 50 432.0 19.0Q382 -12 324 -12Q290 -12 253.0 4.0Q216 20 185 48H182L187 -40V-200ZM305 70Q364 70 403.0 117.0Q442 164 442 251Q442 328 412.0 373.0Q382 418 316 418Q286 418 253.0 402.5Q220 387 187 352V121Q218 93 250.0 81.5Q282 70 305 70Z" transform="translate(332.500,378.000) scale(0.017000,-0.017000)" fill="#7C8B9A"/><path d="M138 0V489H220L228 375H231Q269 434 324.0 467.5Q379 501 444 501Q497 501 540 481L518 396Q493 404 475.0 408.0Q457 412 429 412Q377 412 327.5 382.0Q278 352 237 278V0Z" transform="translate(342.700,378.000) scale(0.017000,-0.017000)" fill="#7C8B9A"/><path d="M300 -12Q236 -12 180.5 18.0Q125 48 90.5 105.5Q56 163 56 244Q56 326 90.5 383.0Q125 440 180.5 470.5Q236 501 300 501Q364 501 419.5 470.5Q475 440 509.5 383.0Q544 326 544 244Q544 163 509.5 105.5Q475 48 419.5 18.0Q364 -12 300 -12ZM300 69Q365 69 403.5 117.0Q442 165 442 244Q442 323 403.5 371.0Q365 419 300 419Q235 419 196.5 371.0Q158 323 158 244Q158 165 196.5 117.0Q235 69 300 69Z" transform="translate(352.900,378.000) scale(0.017000,-0.017000)" fill="#7C8B9A"/><path d="M194 -212Q154 -212 117.5 -202.5Q81 -193 52 -179L83 -106Q138 -132 191 -132Q259 -132 282.5 -99.5Q306 -67 306 -7V409H87V489H405V-1Q405 -61 386.0 -108.5Q367 -156 321.5 -184.0Q276 -212 194 -212ZM347 584Q316 584 294.5 603.5Q273 623 273 655Q273 687 294.5 706.5Q316 726 347 726Q379 726 400.0 706.5Q421 687 421 655Q421 623 400.0 603.5Q379 584 347 584Z" transform="translate(363.100,378.000) scale(0.017000,-0.017000)" fill="#7C8B9A"/><path d="M318 423Q263 423 220.0 388.5Q177 354 166 289H451Q446 356 410.5 389.5Q375 423 318 423ZM330 -12Q256 -12 196.0 18.5Q136 49 100.5 106.5Q65 164 65 245Q65 325 100.5 382.0Q136 439 193.0 470.0Q250 501 315 501Q387 501 437.0 471.5Q487 442 513.5 390.0Q540 338 540 270Q540 254 539.0 240.0Q538 226 536 216H164Q172 140 221.5 103.0Q271 66 343 66Q384 66 418.0 77.5Q452 89 485 109L520 46Q483 21 434.5 4.5Q386 -12 330 -12Z" transform="translate(373.300,378.000) scale(0.017000,-0.017000)" fill="#7C8B9A"/><path d="M345 -12Q269 -12 208.0 18.0Q147 48 111.5 105.5Q76 163 76 244Q76 326 114.0 383.0Q152 440 214.5 470.5Q277 501 351 501Q411 501 456.0 480.5Q501 460 531 431L483 368Q454 392 423.0 405.5Q392 419 356 419Q277 419 227.5 371.0Q178 323 178 244Q178 165 226.5 117.0Q275 69 353 69Q397 69 433.0 86.0Q469 103 498 127L541 63Q500 27 449.0 7.5Q398 -12 345 -12Z" transform="translate(383.500,378.000) scale(0.017000,-0.017000)" fill="#7C8B9A"/><path d="M392 -12Q320 -12 277.5 14.0Q235 40 216.5 86.0Q198 132 198 193V409H64V484L202 489L215 644H297V489H528V409H297V193Q297 130 322.5 99.0Q348 68 415 68Q447 68 474.5 73.5Q502 79 527 89L547 16Q514 5 476.5 -3.5Q439 -12 392 -12Z" transform="translate(393.700,378.000) scale(0.017000,-0.017000)" fill="#7C8B9A"/>
</svg>