<svg xmlns="http://www.w3.org/2000/svg" width="560" height="130" viewBox="0 0 560 130" role="img">
  <title>apronterm wordmark</title>
  <desc>Linien-Jet links, Schriftzug apronTERM in Source Code Pro (in Pfade umgewandelt).</desc>
  <g transform="translate(13.83,2.5) scale(1.44)" fill="none" stroke-linejoin="round" stroke-linecap="round" stroke-width="5.5">
    <path stroke="#1FC2AE" transform="translate(-0.070609,-0.14121801)" d="M 21.601059,22 H 10 L 9.8817299,55.528685 74,55.505737 91.929391,45.622242 74.070609,36.727273 32.633716,36.540159 Z"/>
    <path stroke="#F4B23E" d="M 73.857017,55.41218 91.929391,45.481024 73.786408,36.538394"/>
    <path stroke="#F4B23E" d="m 97.607741,64.925184 19.908209,0.02471"/>
  </g>
  <path d="M241 -12Q171 -12 123.5 26.5Q76 65 76 129Q76 212 156.5 254.5Q237 297 421 311Q419 356 391.5 388.0Q364 420 299 420Q254 420 211.5 403.0Q169 386 133 365L96 432Q137 457 194.5 479.0Q252 501 316 501Q417 501 468.5 446.0Q520 391 520 294V0H439L431 63H428Q389 33 340.0 10.5Q291 -12 241 -12ZM269 67Q308 67 346.0 84.0Q384 101 421 132V248Q325 241 271.0 225.5Q217 210 194.5 188.0Q172 166 172 136Q172 99 200.5 83.0Q229 67 269 67Z" transform="translate(215.000,86.000) scale(0.056000,-0.056000)" fill="#16212E"/><path d="M88 -200V489H169L177 429H180Q213 461 256.5 481.0Q300 501 343 501Q440 501 492.0 433.0Q544 365 544 252Q544 169 513.0 109.5Q482 50 432.0 19.0Q382 -12 324 -12Q290 -12 253.0 4.0Q216 20 185 48H182L187 -40V-200ZM305 70Q364 70 403.0 117.0Q442 164 442 251Q442 328 412.0 373.0Q382 418 316 418Q286 418 253.0 402.5Q220 387 187 352V121Q218 93 250.0 81.5Q282 70 305 70Z" transform="translate(248.600,86.000) scale(0.056000,-0.056000)" fill="#16212E"/><path d="M138 0V489H220L228 375H231Q269 434 324.0 467.5Q379 501 444 501Q497 501 540 481L518 396Q493 404 475.0 408.0Q457 412 429 412Q377 412 327.5 382.0Q278 352 237 278V0Z" transform="translate(282.200,86.000) scale(0.056000,-0.056000)" fill="#16212E"/><path d="M300 -12Q236 -12 180.5 18.0Q125 48 90.5 105.5Q56 163 56 244Q56 326 90.5 383.0Q125 440 180.5 470.5Q236 501 300 501Q364 501 419.5 470.5Q475 440 509.5 383.0Q544 326 544 244Q544 163 509.5 105.5Q475 48 419.5 18.0Q364 -12 300 -12ZM300 69Q365 69 403.5 117.0Q442 165 442 244Q442 323 403.5 371.0Q365 419 300 419Q235 419 196.5 371.0Q158 323 158 244Q158 165 196.5 117.0Q235 69 300 69Z" transform="translate(315.800,86.000) scale(0.056000,-0.056000)" fill="#16212E"/><path d="M88 0V489H169L177 410H181Q218 448 261.0 474.5Q304 501 361 501Q447 501 487.0 449.5Q527 398 527 303V0H428V290Q428 354 405.0 384.5Q382 415 326 415Q287 415 256.0 395.5Q225 376 187 337V0Z" transform="translate(349.400,86.000) scale(0.056000,-0.056000)" fill="#16212E"/><path d="M250 0V571H39V655H561V571H350V0Z" transform="translate(383.000,86.000) scale(0.056000,-0.056000)" fill="#1FC2AE"/><path d="M109 0V655H521V571H209V384H473V300H209V84H531V0Z" transform="translate(416.600,86.000) scale(0.056000,-0.056000)" fill="#1FC2AE"/><path d="M92 0V655H303Q371 655 424.0 637.0Q477 619 507.5 578.0Q538 537 538 466Q538 390 500.0 344.0Q462 298 400 279L561 0H448L299 266H192V0ZM192 347H291Q363 347 401.0 376.5Q439 406 439 466Q439 526 401.0 550.5Q363 575 291 575H192Z" transform="translate(450.200,86.000) scale(0.056000,-0.056000)" fill="#1FC2AE"/><path d="M68 0V655H184L269 388L298 286H302L331 388L416 655H532V0H440V295Q440 329 443.0 376.0Q446 423 450.0 469.5Q454 516 456 546H453L412 405L329 174H267L185 405L145 546H142Q146 516 149.5 469.5Q153 423 155.5 376.0Q158 329 158 295V0Z" transform="translate(483.800,86.000) scale(0.056000,-0.056000)" fill="#1FC2AE"/>
</svg>